<?xml version="1.0" encoding="UTF-8"?>
<svg xmlns="http://www.w3.org/2000/svg" width="99.88" height="130.12" xmlns:xlink="http://www.w3.org/1999/xlink" viewBox="0 0 99.88 130.12">
  <defs>
    <style>
      .cls-1 {
        filter: url(#outer-glow-7);
      }

      .cls-2 {
        fill: #b3b1b3;
      }

      .cls-3 {
        fill: #fff;
      }

      .cls-4 {
        fill: url(#linear-gradient);
        fill-rule: evenodd;
      }

      .cls-5 {
        fill: #fadb00;
      }
    </style>
    <linearGradient id="linear-gradient" x1="19.85" y1="572.59" x2="54.02" y2="538.42" gradientTransform="translate(0 610.35) scale(1 -1)" gradientUnits="userSpaceOnUse">
      <stop offset=".1" stop-color="#0c1623"/>
      <stop offset=".72" stop-color="#2fb34e"/>
    </linearGradient>
    <filter id="outer-glow-7" x="-.96" y=".26" width="95.28" height="124.56" filterUnits="userSpaceOnUse">
      <feOffset dx="0" dy="0"/>
      <feGaussianBlur result="blur" stdDeviation="2.74"/>
      <feFlood flood-color="#00bd4d" flood-opacity="1"/>
      <feComposite in2="blur" operator="in"/>
      <feComposite in="SourceGraphic"/>
    </filter>
  </defs>
  <g id="Layer_2" data-name="Layer 2">
    <path class="cls-3" d="M82.34,33.02H19.4c-5.26.2-9.46,4.54-9.46,9.87v52.18c0,3.57,1.9,6.85,5,8.6l31.3,17.75c2.99,1.7,6.67,1.7,9.66,0l31.3-17.75c3.08-1.75,5-5.03,5-8.6v-52.18c-.03-5.44-4.43-9.87-9.87-9.87Z"/>
  </g>
  <g id="Layer_1" data-name="Layer 1">
    <path class="cls-4" d="M85.22,40.73l-60.98,60.98-6.21-3.51c-1.12-.63-1.81-1.84-1.81-3.14v-52.18c0-1.98,1.61-3.6,3.57-3.6h62.56c1.18,0,2.21.58,2.88,1.44Z"/>
    <path class="cls-2" d="M82.34,33.02H19.4c-5.26.2-9.46,4.54-9.46,9.87v52.18c0,3.57,1.9,6.85,5,8.6l31.3,17.75c2.99,1.7,6.67,1.7,9.66,0l31.3-17.75c3.08-1.75,5-5.03,5-8.6v-52.18c-.03-5.44-4.43-9.87-9.87-9.87ZM85.93,95.06v.26c-.09,1.18-.78,2.27-1.81,2.85l-6.59,3.74-24.71,14.04c-1.09.63-2.42.63-3.51,0l-17.66-10.01-1.67-.95-11.97-6.79c-1.12-.63-1.81-1.84-1.81-3.14v-52.18c0-1.98,1.61-3.6,3.57-3.6h62.56c1.98,0,3.57,1.61,3.57,3.6v52.18h.03Z"/>
    <g>
      <g class="cls-1">
        <path d="M79.38,59.65c-1.64-3.11-2.96-5.44-5.06-8.69,0,0,0,0,0,0,.57-3.46.28-6.88-.06-8.63.63-1.04,1.75-3.91,1.12-7.1-.78-4,.06-5.03.12-10.47.06-5.44-5.44-15.79-8.77-16.05-3.34-.29-6.79,7.85-8.72,11.82-1.67,3.44-2.91,9.55-7.83,12.97,0,0-.02,0-.03,0-1.27-.06-2.47-.06-3.6,0-1.55.09-3.08.26-4.54.55,0,0-.01,0-.02,0-2.84-1.01-2.9-2.25-3.44-2.94-.63-.81-3.37-3.02-5.24-6.59-1.84-3.6-6.85-11.39-8.74-11.02s-1.18,10.5-.17,14.3c1.01,3.77-.06,5.35-.12,9.32-.02,2.26.81,4.74,1.59,6.49-.79,2.17-.91,4.43-2.28,6.42-2.33,3.42-.09,7.59-.14,11.97.02,0,.05.02.07.04-.79,2.37-1.61,3.55-4.39,5.62-3.94,2.93-8.26,7.48-10.15,10.01-1.9,2.5-2.27,3.85-.63,6.41,1.64,2.53,3.65,3.71,3.65,3.71.63.69,2.1,2.13,3.14,2.33,1.32.23,3.68,3.48,8.14,3.08,4.46-.4,4.69-3.34,12.45-2.85.44.03.85.04,1.24.05,0,.01,0,.03,0,.04-.6,3.71-1.55,7.08-1.98,8.95-.52,2.13-2.65,3.39-5,5.58l1.67.95,17.66,10.01c1.09.63,2.42.63,3.51,0l24.68-14.01,6.59-3.74c1.04-.58,1.73-1.67,1.81-2.85v-13.17c-1.98-7.74-4.63-18.93-6.53-22.52Z"/>
      </g>
      <g>
        <path class="cls-5" d="M41.84,63.08c-2.04-.37-1.96-3.83-1.64-5.49l8.28-1.29c.81,2.19-4.08,7.25-6.64,6.79Z"/>
        <path class="cls-5" d="M27.11,57.3l-2.53-1.75c-1.29,4.34.92,5.87,2.21,6.07l.32-4.31Z"/>
      </g>
    </g>
  </g>
</svg>