<?xml version="1.0" encoding="UTF-8"?>
<svg id="Layer_1" data-name="Layer 1" xmlns="http://www.w3.org/2000/svg" width="115.25" height="130.12" xmlns:xlink="http://www.w3.org/1999/xlink" viewBox="0 0 115.25 130.12">
  <defs>
    <style>
      .cls-1 {
        filter: url(#outer-glow-9);
      }

      .cls-2 {
        fill: #fff;
      }

      .cls-3 {
        fill: #b3b2b3;
      }

      .cls-4 {
        fill: url(#linear-gradient);
        fill-rule: evenodd;
      }

      .cls-5 {
        fill: #f8df38;
      }
    </style>
    <linearGradient id="linear-gradient" x1="39.11" y1="213.38" x2="72.29" y2="180.2" gradientTransform="translate(0 242.14) scale(1 -1)" gradientUnits="userSpaceOnUse">
      <stop offset=".1" stop-color="#0c1623"/>
      <stop offset=".72" stop-color="#2fb34e"/>
    </linearGradient>
    <filter id="outer-glow-9" x="-1.14" y="16.81" width="116.88" height="101.28" filterUnits="userSpaceOnUse">
      <feOffset dx="0" dy="0"/>
      <feGaussianBlur result="blur" stdDeviation="2.66"/>
      <feFlood flood-color="#00bd4d" flood-opacity="1"/>
      <feComposite in2="blur" operator="in"/>
      <feComposite in="SourceGraphic"/>
    </filter>
  </defs>
  <path class="cls-2" d="M99.79,24.15h-61.12c-5.11.2-9.19,4.41-9.19,9.58v50.67c0,3.46,1.84,6.65,4.86,8.35l3.04,1.73,12.49,7.09,14.83,8.41c2.9,1.65,6.48,1.65,9.39,0l30.39-17.23c2.99-1.7,4.86-4.89,4.86-8.35v-50.67c0-5.28-4.27-9.58-9.55-9.58Z"/>
  <path class="cls-4" d="M102.59,31.64l-59.22,59.22-6.03-3.41c-1.09-.61-1.76-1.79-1.76-3.04v-50.67c0-1.93,1.56-3.49,3.46-3.49h60.75c1.15,0,2.15.56,2.79,1.4Z"/>
  <path class="cls-3" d="M99.79,24.15h-61.12c-5.11.2-9.19,4.41-9.19,9.58v50.67c0,3.46,1.84,6.65,4.86,8.35l3.04,1.73,12.49,7.09,14.83,8.41c2.9,1.65,6.48,1.65,9.39,0l30.39-17.23c2.99-1.7,4.86-4.89,4.86-8.35v-50.67c0-5.28-4.27-9.58-9.55-9.58ZM103.28,84.4v.25c-.08,1.15-.75,2.21-1.76,2.77l-2.18,1.23-4.22,2.4-22.32,12.65-1.68.95c-1.06.61-2.35.61-3.41,0l-13.97-7.9-3.21-1.82-1.62-.92-11.59-6.56c-.22-.11-.42-.25-.59-.42-.73-.64-1.17-1.59-1.17-2.63v-50.67c0-1.93,1.56-3.49,3.46-3.49h60.75c.17,0,.34,0,.5.03,1.17.17,2.15.92,2.63,1.96.22.45.34.95.34,1.51v50.67h.03Z"/>
  <g class="cls-1">
    <path d="M107.42,35.47c.03.56-.28,1.15-.67,1.34-.14,1.45-.87,2.77-2.09,3.74-.08.08-.2.14-.28.22-.36.28-.73.5-1.12.75-.11.06-.22.14-.34.2-.34.31-.67.61-.98.89-.84.78-1.59,1.45-2.51,2.18-1.42.92-1.37,4.53-.5,7.35,1.34,4.39,2.07,7.54,2.21,9.61.11,1.42-.22,2.93-.84,4.13-.7,1.37-1.76,2.26-3.02,2.6-1.37.39-2.99.75-4.5.73-.28,0-.61-.03-.95-.03-1.54-.06-3.66-.11-4.08.34-.06.06-.06.11-.06.2.06.61.75,2.01,2.07,3.66,3.94,4.86,6.73,9.36,9.58,15.36l-4.22,2.4-22.32,12.65c-1.59-2.07-2.54-5.64-3.66-9.75-.25-.92-.5-1.87-.78-2.82-.31-1.09-1.15-2.07-1.93-2.9-.03-.03-.08-.06-.2-.03-.08,0-.42.08-.64.59-1.48,3.3-6.09,5.75-9.94,7.26-.67.25-1.31.5-1.9.7-1.96.67-3.44,1.06-3.74,1.15-.03.56-.06,1.2-.06,1.84h0c-.03.67-.03,1.31-.06,1.84,0,.25-.03.47-.06.67-.31,2.32-.73,3.83-1.76,6.12.06.11.08.22.11.34.11.59-.17,1.12-.59,1.2h-.11c-.39,0-.78-.39-.87-.92-.06-.34,0-.67.17-.92.03-2.09-.11-6.15-.7-6.79-.64.14-4.78,2.77-6.79,4.16,0,.39-.2,1.01-.64,1.42-.53.45-1.51.64-1.96.22-.22-.22-.31-.56-.22-.98.14-.61.61-1.23,1.15-1.45.11-.06.45-.14.59-.2,1.12-2.12,2.15-4.05,3.58-6.03-1.56-.34-3.74-.22-5.81-.14-1.31.06-2.54.11-3.6.06l-.06.14h-.03c-.34.25-.75.45-1.17.53-.53.08-1.06.03-1.48-.17s-.7-.53-.78-.92c-.14-.78.64-1.59,1.76-1.79.56-.11,1.09-.03,1.51.17h.03v.03c1.45-.84,3.69-1.51,5.25-1.9.64-.17,1.17-.28,1.48-.34.17-.03.34-.06.53-.08.14-.03.28-.06.42-.06.31-.06.61-.14.87-.31.36-.25.53-.59.5-1.01-.06-.98-1.09-2.15-2.07-2.74-.87-.5-1.76-1.03-3.02-1.31-.28.08-.56.08-.87.06-.81-.14-1.4-.78-1.28-1.4s.87-1.01,1.68-.84c.42.08.81.31,1.06.59h.06c1.42.06,2.82.28,4.16.64,1.51.42,2.96,1.06,4.33,1.9l.31-1.45c-.22-.2-.39-.47-.45-.81-.11-.64.2-1.23.67-1.31.22-.03.47.06.67.22.2.2.34.47.39.78.06.28.03.56-.08.78.73.92,1.54,1.73,2.43,2.4.34.17.92.06,1.65-.36,3.18-1.79,7.96-8.02,8.32-14.58l-.45-5.36h.06l.03-.03c-.22-.67-.47-1.4-.84-1.82-.75-.78-3.35-3.35-5.61-3.44-1.93-.08-3.63,1.06-5.25,2.15-.28.17-.56.36-.81.53-2.65,1.7-5.42,2.77-8.16,3.07-.11,0-.2.03-.28.03-.73.08-1.48.11-2.23.08-1.26,0-2.54-.14-3.77-.28-.47-.06-.92-.11-1.37-.17l-.92-.11-4.69-.56c-3.44-.42-6.98-.87-10.42-1.7-1.45-.36-3.1-.84-4.53-1.79-1.54-1.01-2.54-2.37-2.88-3.85-.14-.56-.14-1.06,0-1.48.17-.56.59-1.01,1.03-1.45,2.99-3.04,6.51-5.89,11.12-8.91,1.62-2.99,4.89-4.97,8.32-5.08.61-.36,1.2-.7,1.82-1.06.08-.06.14-.08.22-.14.75-.42,1.51-.87,2.29-1.28,1.2-.64,2.46-1.26,3.77-1.73.73-.25,1.45-.47,2.23-.64.59-.14,1.17-.22,1.76-.25,3.94-.28,7.68,1.31,11.28,2.85,3.1,1.31,6.28,2.68,9.64,2.88v-.03c2.18,0,5.14,1.01,8.32,2.79,2.85,1.62,5.47,3.63,6.98,5.39.39.47.84.89,1.26,1.31.22.22.45.45.67.67l1.98,1.12c2.4,1.45,5.45,1.48,7.93,1.51.53,0,2.32-.03,2.88-.59.31-.31.56-.84.7-1.59.45-2.29.61-6.31.08-8.8-.34-1.68-1.79-2.35-3.3-3.07l-.67-.34c-.22-.14-.75-.22-1.06-.22-.25.08-.5.14-.81.14-.11,0-.2,0-.31-.03-.56-.06-1.12-.36-1.42-.73-.14-.2-.22-.36-.2-.53,0-.2.14-.39.31-.56.36-.31.92-.5,1.45-.45.45.03.84.22,1.15.53,1.01.25,1.7-.2,2.04-.5.59-.5.89-1.28.78-1.9-.11-.59-.34-1.01-.67-1.59-.78-1.4-1.51-2.51-2.68-4.16-.47-.06-.84-.39-1.03-.59l-.06-.06c-.39-.36-.64-.87-.61-1.28,0-.22.08-.39.25-.5.22-.14.61-.2,1.03-.08.47.11.87.31,1.06.61.22.28.25.47.36.87,2.23.7,4.75,3.55,5.28,4.16.53-1.84.64-4.53.11-6.82,0-.06-.03-.11-.03-.17-.17-.7-.42-1.37-.73-1.93-.34-.22-.67-.73-.81-1.12-.14-.42-.28-1.45.06-2.01.14-.22.34-.36.59-.39.67-.08,1.62.59,1.73,1.48.08.59.03,1.17-.06,1.45.56.64,1.17,1.51,1.73,2.51.03.06.06.11.08.17,1.26,2.21,2.35,4.92,2.46,6.79,2.79-1.9,3.02-4.41,2.93-6.79v-.11c0-.28-.03-.53-.03-.78l-.03-.28c-.61-.31-.7-.78-.75-1.03v-.03c-.14-.64-.03-1.9.28-2.07.31-.2.61-.28.89-.22.56.11.92.7,1.12.95.03.06.06.06.06.08.53,1.09.2,1.7.08,1.9.22.34.5,1.01.73,1.9.11.45.22.98.31,1.54.28,1.93.2,4.27-.81,6.31.31-.03.73-.11,1.15-.28.47-.2.98-.47,1.4-.81.42-.36.78-.81.95-1.31t-.03-.06c-.03-.08-.11-.22-.08-.47.06-.64.42-1.82,1.01-1.82.25,0,.5.2.67.59.11.28.2.67.2,1.03Z"/>
  </g>
  <path class="cls-5" d="M28.71,56.86s-.03,0,0,0c-.03-.03-.03-.06-.06-.06-.5-.56-1.26-.61-1.96-.56-.84.08-1.65.34-2.37.7-1.54.75-2.74,2.04-3.77,3.38-.11.14,1.12.7,1.56.84.47.14.95.28,1.45.34.98.14,1.93-.11,2.82-.59.81-.42,1.56-1.03,2.09-1.79.45-.61.73-1.54.22-2.26Z"/>
</svg>