<?xml version="1.0" encoding="UTF-8"?>
<svg xmlns="http://www.w3.org/2000/svg" width="94.5" height="130.12" xmlns:xlink="http://www.w3.org/1999/xlink" viewBox="0 0 94.5 130.12">
  <defs>
    <style>
      .cls-1 {
        fill: #fff;
      }

      .cls-1, .cls-2, .cls-3 {
        fill-rule: evenodd;
      }

      .cls-4 {
        fill: #979797;
      }

      .cls-2 {
        fill: #b3b1b3;
      }

      .cls-3 {
        fill: url(#linear-gradient);
      }

      .cls-5 {
        fill: #f8df38;
      }

      .cls-6 {
        filter: url(#outer-glow-10);
      }
    </style>
    <linearGradient id="linear-gradient" x1="16.58" y1="122.15" x2="48.69" y2="154.26" gradientTransform="translate(0 -82)" gradientUnits="userSpaceOnUse">
      <stop offset=".1" stop-color="#0c1623"/>
      <stop offset=".72" stop-color="#2fb34e"/>
    </linearGradient>
    <filter id="outer-glow-10" x="10.53" y="-1.68" width="83.04" height="124.32" filterUnits="userSpaceOnUse">
      <feOffset dx="0" dy="0"/>
      <feGaussianBlur result="blur" stdDeviation="2.74"/>
      <feFlood flood-color="#00bd4d" flood-opacity="1"/>
      <feComposite in2="blur" operator="in"/>
      <feComposite in="SourceGraphic"/>
    </filter>
  </defs>
  <g id="Layer_2" data-name="Layer 2">
    <path class="cls-1" d="M75.34,35.69H16.17c-4.95.19-8.9,4.27-8.9,9.28v49.06c0,3.35,1.78,6.44,4.71,8.09l29.4,16.69c2.81,1.6,6.27,1.6,9.09,0l29.42-16.69c2.89-1.65,4.71-4.73,4.71-8.09v-49.06c0-5.11-4.14-9.28-9.25-9.28Z"/>
  </g>
  <g id="Layer_1" data-name="Layer 1">
    <g>
      <path class="cls-3" d="M78.02,42.94l-57.33,57.33-5.81-3.3c-1.05-.59-1.7-1.73-1.7-2.95v-49.06c0-1.87,1.51-3.38,3.35-3.38h58.82c1.11,0,2.08.54,2.68,1.35Z"/>
      <path class="cls-2" d="M75.34,35.69H16.17c-4.95.19-8.9,4.27-8.9,9.28v49.06c0,3.35,1.78,6.44,4.71,8.09l29.4,16.69c2.81,1.6,6.27,1.6,9.09,0l29.42-16.69c2.89-1.65,4.71-4.73,4.71-8.09v-49.06c0-5.11-4.14-9.28-9.25-9.28ZM78.7,94.03c0,1.22-.65,2.33-1.7,2.95l-6.19,3.52-23.2,13.17c-1.03.59-2.27.59-3.3,0l-16.6-9.41-12.82-7.27c-1.05-.59-1.7-1.73-1.7-2.95v-49.06c0-1.87,1.51-3.38,3.35-3.38h58.82c1.87,0,3.35,1.51,3.35,3.38v49.06h0Z"/>
      <g>
        <path class="cls-4" d="M56.82,40.4c.11-.19.22-.35.3-.54.32-.81.7-1.62,1.08-2.41h-.95c-.11.57-.19,1.16-.3,1.73-.05.41-.14.78-.14,1.22Z"/>
        <g class="cls-6">
          <path d="M85.05,19.36c-.16-1.19-.89-1.57-1.81-.92-2,1.35-3.95,2.79-6,4.06-2.54,1.57-5.14,3.03-7.73,4.52-2.16,1.24-4.38,2.41-6.36,4-2.19,1.78-3.76,4.03-4.98,6.46-.38.78-.76,1.6-1.08,2.41-.08.19-.19.38-.3.54,0-.43.08-.81.16-1.22.11-.57.19-1.16.3-1.73.14-.89.3-1.81.49-2.7.51-2.52,1.35-4.92,2.3-7.27.54-1.33,1.11-2.65,1.43-4.06.59-2.52,1.14-5.08,1.49-7.65s.49-5.19.05-7.79c-.14-.92-.84-1.68-1.89-.89-1.05.81-2.03,1.68-3,2.57-2.7,2.43-5.22,5.03-7.14,8.17-1.46,2.41-2.6,4.98-3.25,7.73-.43,1.95-.87,3.89-1.19,5.84-.27,1.65-.57,3.33-.59,5,0,.35,0,.7.03,1.05.05.89.16,1.78.27,2.68.03.27.05.54.08.81.03.19-.03.41-.03.62-1.41.22-2.81.35-4.16.65-1.97.43-3.95.87-5.9,1.43-2.54.76-4.73,2.24-6.82,3.87-3.41,2.65-6.44,5.71-9.11,9.11-.89,1.14-1.57,2.65-1.38,4.16,0,.05.16,2.73,2.08,3.54.41,4.22,3.49,5.46,6.95,6.54,1.49.46,3.19,1.35,4.68,1.76,2.19.62,3.03,1.03,3.43,3.35.35,1.54-.65,7.79-2.41,10.66-3.49,5.68-7.06,9.68-8.79,15.96l19.36,10.98c1.08.62,2.41.62,3.49,0l26.96-15.31c-.59-2.49-4.14-8.6-5.76-10.95-1.89-2.68-4.11-6.11-6.33-11.79-1.84-4.68-3.46-9.11.19-14.58.87-1.3,1.35-3.33,1.57-5.17.19-1.65-.27-4.19-1.03-5.63,0,0-.7-1.89-.57-2.08.95-1.78,3.81-2.08,5.44-3.25,1.6-1.14,3.11-2.33,4.52-3.62,1.03-.95,2-1.92,2.87-3,.22-.27.41-.54.62-.78,1.78-2.22,3.57-4.46,5.25-6.79,1.22-1.68,2.54-3.35,3.06-5.46.49-1.92.81-3.84.54-5.84Z"/>
        </g>
      </g>
      <path class="cls-5" d="M40.62,48.75s-.03-.03,0,0c-.03-.03-.03-.05-.03-.05.03.11-1.97-.89-3.84-.03-1.38.65-2.49,1.68-3.46,2.84-.08.11.95.68,1.33.81.41.14.84.27,1.27.35.87.16,1.76.03,2.52-.41,2.35-1.3,2.11-3.46,2.22-3.52Z"/>
    </g>
  </g>
</svg>