<?xml version="1.0" encoding="UTF-8"?>
<svg xmlns="http://www.w3.org/2000/svg" width="99.88" height="130.12" xmlns:xlink="http://www.w3.org/1999/xlink" viewBox="0 0 99.88 130.12">
  <defs>
    <style>
      .cls-1 {
        fill: #fff;
      }

      .cls-1, .cls-2, .cls-3 {
        fill-rule: evenodd;
      }

      .cls-4 {
        filter: url(#outer-glow-7);
      }

      .cls-2 {
        fill: #b3b1b3;
      }

      .cls-5 {
        fill: #fcdc00;
      }

      .cls-3 {
        fill: url(#linear-gradient);
      }
    </style>
    <linearGradient id="linear-gradient" x1="23.05" y1="577.48" x2="57.21" y2="543.32" gradientTransform="translate(0 610.35) scale(1 -1)" gradientUnits="userSpaceOnUse">
      <stop offset=".1" stop-color="#0c1623"/>
      <stop offset=".72" stop-color="#2fb34e"/>
    </linearGradient>
    <filter id="outer-glow-7" x="-1.9" y="5.78" width="102" height="114.24" filterUnits="userSpaceOnUse">
      <feOffset dx="0" dy="0"/>
      <feGaussianBlur result="blur" stdDeviation="2.74"/>
      <feFlood flood-color="#00bd4d" flood-opacity="1"/>
      <feComposite in2="blur" operator="in"/>
      <feComposite in="SourceGraphic"/>
    </filter>
  </defs>
  <g id="Layer_2" data-name="Layer 2">
    <path class="cls-1" d="M85.55,28.13H22.62c-5.26.2-9.46,4.54-9.46,9.87v52.18c0,3.57,1.9,6.85,5,8.6l31.27,17.75c2.99,1.7,6.67,1.7,9.66,0l31.3-17.75c3.08-1.75,5-5.03,5-8.6v-52.18c0-5.44-4.4-9.87-9.84-9.87Z"/>
  </g>
  <g id="Layer_1" data-name="Layer 1">
    <path class="cls-3" d="M88.4,35.84l-60.98,60.98-6.18-3.51c-1.12-.63-1.81-1.84-1.81-3.14v-52.18c0-1.98,1.61-3.6,3.57-3.6h62.56c1.18,0,2.21.58,2.85,1.44Z"/>
    <path class="cls-2" d="M85.55,28.13H22.62c-5.26.2-9.46,4.54-9.46,9.87v52.18c0,3.57,1.9,6.85,5,8.6l31.27,17.75c2.99,1.7,6.67,1.7,9.66,0l31.3-17.75c3.08-1.75,5-5.03,5-8.6v-52.18c0-5.44-4.4-9.87-9.84-9.87ZM89.12,90.17c0,1.29-.69,2.47-1.81,3.14l-6.59,3.74-24.68,14.01c-1.09.63-2.42.63-3.51,0l-17.66-10.01-13.63-7.74c-1.12-.63-1.81-1.84-1.81-3.14v-52.18c0-1.98,1.61-3.6,3.57-3.6h62.56c1.98,0,3.57,1.61,3.57,3.6v52.18Z"/>
    <g class="cls-4">
      <path d="M91.07,68.37c-.58.49-1.35,1.29-1.93,2.42-.58,1.09-.98,2.47-.86,4.14-1.21.52-3.45,3.31-3.34,5.81-5.78,3.11-6.36,10.3-4.29,16.05.03.09.06.17.09.26l-24.71,14.01c-1.09.63-2.42.63-3.51,0l-17.66-10.01c-1.67-15.01,5.78-25.2,12.6-32.96,7.31-8.31,6.64-15.36,3.25-15.25-2.73.09-3.54.75-3.6,1.06-.46,1.61-2.24,5.29-5.67,7.05-4.26,2.19-6.67,1.01-7.82,1.47s-1.35,2.1-5.41,2.82c-3.02.55-6.7,5.06-8.77,8.4-.72,1.15-1.27,2.16-1.52,2.82-.75,1.87-2.85,3.54-4.75,4.26-.72.26-1.44.4-2.01.35-2.1-.2-4.43-5.95-4.43-5.95-.32-.66-.46-2.33,1.38-3.71,1.24-.92,3.31-2.91,5.06-5.58,1.52-2.36,2.82-5.24,3.02-8.43.46-6.85-.75-10.44.32-14.67.92-3.62,5.09-9.66,6.13-14.53.17-.81.26-1.58.23-2.3.86.55,2.19,1.41,3.37,2.3,1.27.92,2.39,1.84,2.7,2.39.03-.58.12-1.41.32-2.39.4-1.98,1.18-4.54,2.62-6.5,2.68-3.68,2.88-6.13,2.1-7.62,3.6.95,11.25,3.62,13,6.79,1.38-.95,4.86-2.88,7.85-2.93,2.99-.06,4.63-1.04,5.06-1.52.29,2.13,1.52,6.79,4.2,8.4,2.7,1.61,5.78,1.09,6.96.63.09.78.32,1.75.78,2.76,1.09,2.56,3.45,5.26,7.82,5.06,0,.37.03.78.06,1.21.26,3.11,1.58,7.85,5.41,8.83.26,1.81,1.41,5.24,4,6.93.6.4,1.27.69,2.01.86-.55,2.21-1.15,7.08.63,8.8-.6,1.7-2.07,5.84-.69,8.49Z"/>
    </g>
    <path class="cls-5" d="M29.81,45.07c.92.89,2.07,1.96,1.09,4.43-.95,2.47-4.49,2.1-5.41,1.24-.92-.89.23-2.56,2.01-4.43,1.81-1.9,1.38-2.13,2.3-1.24h0Z"/>
  </g>
</svg>