<?xml version="1.0" encoding="UTF-8"?>
<svg xmlns="http://www.w3.org/2000/svg" width="99.88" height="130.12" xmlns:xlink="http://www.w3.org/1999/xlink" viewBox="0 0 99.88 130.12">
  <defs>
    <style>
      .cls-1 {
        fill: #fff;
      }

      .cls-1, .cls-2, .cls-3 {
        fill-rule: evenodd;
      }

      .cls-4 {
        filter: url(#outer-glow-8);
      }

      .cls-2 {
        fill: #b3b1b3;
      }

      .cls-5 {
        fill: #fcdc00;
      }

      .cls-3 {
        fill: url(#linear-gradient);
      }
    </style>
    <linearGradient id="linear-gradient" x1="21.52" y1="580.62" x2="55.69" y2="546.45" gradientTransform="translate(0 610.35) scale(1 -1)" gradientUnits="userSpaceOnUse">
      <stop offset=".1" stop-color="#0c1623"/>
      <stop offset=".72" stop-color="#2fb34e"/>
    </linearGradient>
    <filter id="outer-glow-8" x="-2.78" y="7.46" width="102.96" height="109.2" filterUnits="userSpaceOnUse">
      <feOffset dx="0" dy="0"/>
      <feGaussianBlur result="blur" stdDeviation="2.74"/>
      <feFlood flood-color="#00bd4d" flood-opacity="1"/>
      <feComposite in2="blur" operator="in"/>
      <feComposite in="SourceGraphic"/>
    </filter>
  </defs>
  <g id="Layer_2" data-name="Layer 2">
    <path class="cls-1" d="M88.56,26.08c-1.35-.72-2.91-1.12-4.52-1.12H21.08c-5.24.23-9.43,4.57-9.43,9.89v52.18c0,3.57,1.9,6.85,5,8.6l3.14,1.78,12.86,7.31,15.27,8.66c2.99,1.7,6.67,1.7,9.66,0l31.3-17.75c3.08-1.75,5-5.03,5-8.6v-52.18c-.03-3.8-2.19-7.13-5.32-8.77Z"/>
  </g>
  <g id="Layer_1" data-name="Layer 1">
    <path class="cls-3" d="M86.89,32.69l-60.98,60.98-6.21-3.51c-1.12-.63-1.81-1.84-1.81-3.14v-52.18c0-1.98,1.61-3.6,3.57-3.6h62.56c1.18,0,2.21.58,2.88,1.44Z"/>
    <path class="cls-2" d="M88.56,26.08c-1.35-.72-2.91-1.12-4.52-1.12H21.08c-5.24.23-9.43,4.57-9.43,9.89v52.18c0,3.57,1.9,6.85,5,8.6l3.14,1.78,12.86,7.31,15.27,8.66c2.99,1.7,6.67,1.7,9.66,0l31.3-17.75c3.08-1.75,5-5.03,5-8.6v-52.18c-.03-3.8-2.19-7.13-5.32-8.77ZM17.88,34.85c0-1.98,1.61-3.6,3.57-3.6h62.56c.17,0,.35,0,.52.03,1.21.17,2.21.95,2.7,2.01.23.46.35.98.35,1.55v52.44c-.09,1.18-.78,2.27-1.81,2.85l-2.24,1.27-4.34,2.47-22.95,13.06-1.73.98c-1.09.63-2.42.63-3.51,0l-14.38-8.14-3.31-1.87-1.67-.95-11.94-6.79c-.23-.12-.43-.26-.6-.43l-.03-.03c-.75-.69-1.18-1.64-1.18-2.68v-52.18Z"/>
    <path class="cls-5" d="M29.07,61.27c-1.81,1.58-4.49-.17-4.86-1.29-.37-1.09,1.27-1.96,3.48-2.7,2.24-.78,1.96-1.15,2.33-.03h0c.37,1.09.83,2.42-.95,4.03Z"/>
    <path class="cls-4" d="M88.73,26.4c-.06-.12-.12-.2-.17-.32-2.91-5.32-7.74-9.64-13.89-10.13-10.38-.83-18.81,2.99-24.74,9-.09.09-.2.2-.29.29-1.78,1.84-3.31,3.85-4.63,6.01-.06.09-.12.2-.17.29-3.54,5.9-5.26,12.74-4.92,19.1,0,0,0,0,0,0-1.88.48-3.77,1.05-5.58,1.08-2.7.03-.92-1.29-7.77.26-6.85,1.55-5.18,1.67-7.28,3.42-2.1,1.75-4.31,2.65-5.55,2.82-1.24.17-3.77,1.47-3.37,4.11-2.96,3.16-2.79,5.67-1.21,8.86.83,1.7,1.78,3.16,2.47,4.17-1.41,1.06-2.7,2.3-3.88,3.65-.92.92-1.67,1.75-2.19,2.91-.23.52.72,1.67.89,1.24.23-.66.52-1.41,1.06-2.16-.26,1.01-.17,1.9-.23,2.82-.03.58,1.27-.14,1.29-.58,0-1.12-.37-1.93.63-3.42,1.09-1.24,2.3-2.36,3.62-3.34,4.49.55,15.04.63,24.39-3.02,3.59-1.39,6.64-2.68,9.11-3.92,0,0,0,0,0,0,2.88,3.97,6.07,6.59,8.34,8.43.32.26.6.49.89.72,0,0-21,3.05-36.5,10.96l.03.03c.17.17.4.32.6.43l11.94,6.76,1.67.95,3.31,1.87,14.38,8.14c1.09.63,2.42.63,3.51,0l1.73-.98,22.98-13.03,4.34-2.47,2.24-1.27c1.04-.6,1.73-1.67,1.81-2.85v-13.75c-4.72-6.16-12.31-11.53-15.94-14.09,6.62-2.47,12.34-5.95,15.94-10.5.06-.06.09-.12.12-.14,2.39-3.05,3.8-6.56,3.94-10.56.12-3.68-.95-8-2.96-11.82ZM63.91,42.65c-.75-2.21-.14-7.45,8.4-10.87,0,2.53-1.67,8.26-8.4,10.87Z"/>
    <path class="cls-5" d="M29.07,61.27c-1.81,1.58-4.49-.17-4.86-1.29-.37-1.09,1.27-1.96,3.48-2.7,2.24-.78,1.96-1.15,2.33-.03.37,1.09.83,2.42-.95,4.03Z"/>
  </g>
</svg>